<svg xmlns="http://www.w3.org/2000/svg" style="display:none" aria-hidden="true">
  <symbol id="lf-icon-check" viewBox="0 0 24 24">
    <polyline points="20 6 9 17 4 12"></polyline>
  </symbol>
  <symbol id="lf-icon-star" viewBox="0 0 24 24">
    <polygon points="12 2 15.09 8.26 22 9.27 17 14.14 18.18 22 12 18.56 5.82 22 7 14.14 2 9.27 8.91 8.26 12 2"></polygon>
  </symbol>
  <symbol id="lf-icon-shield" viewBox="0 0 24 24">
    <path d="M12 22s8-4 8-10V5l-8-3-8 3v7c0 6 8 10 8 10z"></path>
  </symbol>
  <symbol id="lf-icon-clock" viewBox="0 0 24 24">
    <circle cx="12" cy="12" r="10"></circle>
    <polyline points="12 6 12 12 16 14"></polyline>
  </symbol>
  <symbol id="lf-icon-map-pin" viewBox="0 0 24 24">
    <path d="M21 10c0 7-9 13-9 13s-9-6-9-13a9 9 0 1 1 18 0z"></path>
    <circle cx="12" cy="10" r="3"></circle>
  </symbol>
  <symbol id="lf-icon-home" viewBox="0 0 24 24">
    <path d="M3 9l9-7 9 7v11a2 2 0 0 1-2 2h-4a2 2 0 0 1-2-2v-6H9v6a2 2 0 0 1-2 2H5a2 2 0 0 1-2-2z"></path>
  </symbol>
  <symbol id="lf-icon-calendar" viewBox="0 0 24 24">
    <rect x="3" y="4" width="18" height="18" rx="2" ry="2"></rect>
    <line x1="16" y1="2" x2="16" y2="6"></line>
    <line x1="8" y1="2" x2="8" y2="6"></line>
    <line x1="3" y1="10" x2="21" y2="10"></line>
  </symbol>
  <symbol id="lf-icon-phone" viewBox="0 0 24 24">
    <path d="M22 16.92V21a2 2 0 0 1-2.18 2 19.8 19.8 0 0 1-8.63-3.07 19.5 19.5 0 0 1-6-6A19.8 19.8 0 0 1 1 4.18 2 2 0 0 1 3 2h4.09a2 2 0 0 1 2 1.72c.12.9.3 1.77.54 2.61a2 2 0 0 1-.45 2.11L8.09 9.91a16 16 0 0 0 6 6l1.47-1.47a2 2 0 0 1 2.11-.45c.84.24 1.71.42 2.61.54a2 2 0 0 1 1.72 2z"></path>
  </symbol>
  <symbol id="lf-icon-hammer" viewBox="0 0 24 24">
    <path d="M14 4l6 6"></path>
    <path d="M13 5l-3 3 6 6 3-3z"></path>
    <path d="M3 21l9-9"></path>
    <path d="M8 16l-2-2"></path>
  </symbol>
  <symbol id="lf-icon-ruler" viewBox="0 0 24 24">
    <path d="M3 21l18-18"></path>
    <path d="M7 17l2 2"></path>
    <path d="M11 13l2 2"></path>
    <path d="M15 9l2 2"></path>
  </symbol>
  <symbol id="lf-icon-paintbrush" viewBox="0 0 24 24">
    <path d="M18 2l4 4-11 11H7v-4z"></path>
    <path d="M5 21c2 0 4-1 4-4H5a3 3 0 0 0 0 4z"></path>
  </symbol>
  <symbol id="lf-icon-cloud-rain" viewBox="0 0 24 24">
    <path d="M20 16.5a4.5 4.5 0 0 0-4-4.5 5 5 0 0 0-9.5 1.5A4 4 0 0 0 4 17h16"></path>
    <line x1="8" y1="20" x2="8" y2="22"></line>
    <line x1="12" y1="20" x2="12" y2="22"></line>
    <line x1="16" y1="20" x2="16" y2="22"></line>
  </symbol>
  <symbol id="lf-icon-wind" viewBox="0 0 24 24">
    <path d="M3 12h11a3 3 0 1 0-3-3"></path>
    <path d="M1 16h9a2 2 0 1 1-2 2"></path>
    <path d="M3 8h14a3 3 0 1 1-3 3"></path>
  </symbol>
  <symbol id="lf-icon-snowflake" viewBox="0 0 24 24">
    <line x1="12" y1="2" x2="12" y2="22"></line>
    <line x1="4.93" y1="4.93" x2="19.07" y2="19.07"></line>
    <line x1="4.93" y1="19.07" x2="19.07" y2="4.93"></line>
    <line x1="2" y1="12" x2="22" y2="12"></line>
  </symbol>
  <symbol id="lf-icon-flame" viewBox="0 0 24 24">
    <path d="M12 2s5 4.5 5 9a5 5 0 0 1-10 0c0-4.5 5-9 5-9z"></path>
    <path d="M12 12c1.5 2 2 2.5 2 4a2 2 0 1 1-4 0c0-1.5.5-2 2-4z"></path>
  </symbol>
  <symbol id="lf-icon-fan" viewBox="0 0 24 24">
    <circle cx="12" cy="12" r="2"></circle>
    <path d="M12 4a4 4 0 0 1 4 4c0 1.7-1 3-2.4 3.6"></path>
    <path d="M20 12a4 4 0 0 1-4 4c-1.7 0-3-1-3.6-2.4"></path>
    <path d="M12 20a4 4 0 0 1-4-4c0-1.7 1-3 2.4-3.6"></path>
  </symbol>
  <symbol id="lf-icon-thermometer" viewBox="0 0 24 24">
    <path d="M14 14.76V5a2 2 0 1 0-4 0v9.76a4 4 0 1 0 4 0z"></path>
  </symbol>
  <symbol id="lf-icon-droplet" viewBox="0 0 24 24">
    <path d="M12 2.69l5.66 5.66a8 8 0 1 1-11.32 0L12 2.69z"></path>
  </symbol>
  <symbol id="lf-icon-wrench" viewBox="0 0 24 24">
    <path d="M14.7 6.3a5 5 0 0 0-6.4 6.4l-6.3 6.3a2 2 0 0 0 2.8 2.8l6.3-6.3a5 5 0 0 0 6.4-6.4z"></path>
  </symbol>
  <symbol id="lf-icon-zap" viewBox="0 0 24 24">
    <polygon points="13 2 3 14 12 14 11 22 21 10 12 10 13 2"></polygon>
  </symbol>
  <symbol id="lf-icon-plug" viewBox="0 0 24 24">
    <path d="M9 7V2"></path>
    <path d="M15 7V2"></path>
    <path d="M5 7h14v5a7 7 0 0 1-14 0z"></path>
    <line x1="12" y1="19" x2="12" y2="22"></line>
  </symbol>
  <symbol id="lf-icon-battery" viewBox="0 0 24 24">
    <rect x="2" y="7" width="18" height="10" rx="2" ry="2"></rect>
    <line x1="22" y1="11" x2="22" y2="13"></line>
  </symbol>
  <symbol id="lf-icon-lightbulb" viewBox="0 0 24 24">
    <path d="M8 14a4 4 0 1 1 8 0c0 2-1 3-2 4H10c-1-1-2-2-2-4z"></path>
    <line x1="9" y1="18" x2="15" y2="18"></line>
    <line x1="10" y1="22" x2="14" y2="22"></line>
  </symbol>
  <symbol id="lf-icon-leaf" viewBox="0 0 24 24">
    <path d="M11 20c-4 0-7-3-7-7 0-6 7-9 16-9-1 9-4 16-9 16z"></path>
    <path d="M11 20c0-6 4-11 9-16"></path>
  </symbol>
  <symbol id="lf-icon-tree" viewBox="0 0 24 24">
    <path d="M12 2l6 6h-4l4 5h-4l4 5H6l4-5H6l4-5H6z"></path>
    <line x1="12" y1="14" x2="12" y2="22"></line>
  </symbol>
  <symbol id="lf-icon-sun" viewBox="0 0 24 24">
    <circle cx="12" cy="12" r="4"></circle>
    <line x1="12" y1="2" x2="12" y2="6"></line>
    <line x1="12" y1="18" x2="12" y2="22"></line>
    <line x1="2" y1="12" x2="6" y2="12"></line>
    <line x1="18" y1="12" x2="22" y2="12"></line>
    <line x1="4.93" y1="4.93" x2="7.76" y2="7.76"></line>
    <line x1="16.24" y1="16.24" x2="19.07" y2="19.07"></line>
    <line x1="4.93" y1="19.07" x2="7.76" y2="16.24"></line>
    <line x1="16.24" y1="7.76" x2="19.07" y2="4.93"></line>
  </symbol>
  <symbol id="lf-icon-pipe" viewBox="0 0 24 24">
    <path d="M7 3v5a2 2 0 0 0 2 2h6a2 2 0 0 0 2-2V3"></path>
    <path d="M17 21v-5a2 2 0 0 0-2-2H9a2 2 0 0 0-2 2v5"></path>
    <line x1="7" y1="3" x2="17" y2="3"></line>
  </symbol>
</svg>
